v9o2dl16rd8d2rd4rd8d4a8r8.<g4rg8g2rg4rg8g4>a8r8.d4rd8d2rd4rd8d4a8r8.<g
4rg8g2rg4rg8g4>a8r8.d4rd8d2rd4rd8d4a8r8.<g4rg8g2rg4rg8g4>a8r8.d4rd8d2r
d4rd8d4a8r8.<g4rg8g2rg4rl8gg4>ar.d4.dd4a4r2.ard4.dd4a4r2.arl4.<gg8g2gg
8g2aa8a2gg8g2r1r1>dd8d2dd8d2<gg8g2gg8g2>dd8d2dd8d2<gg8g2gg8g2>dd8d2dd8
d2<gg8g2gg8g2>dd8l4dar2.ad.d8dar2.al4.<gg8g2gg8g2aa8a2gl8gg2>e4ree4ef+
g4rgl4grdr8d8dc+<br8b8br>el8ree4ef+g4rgl4grdr8d8dc+<br8b8brar8a8ar>ar8
a8ard.d8dar2.ad.d8dar2.al4.<gg8g2gg8g2aa8a2gg8g2>dd8l4dar2.ad.d8dar2.a
<g.g8g2
