r1r1v11<c+8g8l16<ee>g4<c8eec8ff>g8<ff>g8c+8<eeaaffl4n37ccceccccccceccc
cceccce8e8l32eeeeeeeel4ecec>c+gc+gc+8l16<f+f+f+8f+f+f+8f+f+f+8f+f+f+8f
+f+f+8f+f+f+8f+f+>g8<f+f+>c+8<f+f+f+8f+f+f+8f+f+f+8f+f+f+8f+f+f+8f+f+f
+8f+f+>c+8<f+f+>g8<f+f+f+8f+f+f+8f+f+f+8f+f+>c+8<f+f+f+8f+f+f+8f+f+f+8
f+f+>g8<f+f+f+8f+f+f+8f+f+f+8f+f+>c+8<f+f+f+8f+f+f+8bbbaa8>c+8<f+f+e8f
+f+l8cn39en39c4e>d+g4<e.e16>c+d+<en39cn39en39c4e>d+g4<e.e16>gd+<en39cn
39en39c4e>d+g4<f.f16>gd+<en39cn39en39l4eeee16a8f16eeeeeel16eaa8ea8cl4f
+f+ef+cf+ee16e16a8eeeeeeel16ea8f>g4r8<ccl4ef+cf+ef+8l16bbc4r8ccl4ef+f+
8e8f+ee8.e16n37r1r.c16c16eeeeeeeeel8n37ef+en37ef+en37ef+en37en37en37ef
+en37ef+en37ef+en37en37en37ef+en37ef+en37ef+en37el16eeee>c+4r2.l8c+<en
37e>g<e>g<en37en37e>g<e>g<en37en37e>g<e>g<en37ec4c4e16e16an37en37en37e
n37en37en37en37en37en37en37en37en37en37en37en37en37e>c+1
